<svg width="24" height="21" viewBox="0 0 24 21" fill="none" xmlns="http://www.w3.org/2000/svg">
<path d="M20.6511 18.495L23.3627 7.87963C23.6858 6.61487 22.7303 5.38464 21.4249 5.38464H13.8667H5.28667C4.37275 5.38464 3.57508 6.00417 3.34889 6.88966L0.637315 17.505C0.314248 18.7698 1.26973 20 2.57509 20H18.7133C19.6273 20 20.4249 19.3805 20.6511 18.495Z" fill="white" stroke="white"/>
<path d="M0.5 17.5128V3C0.5 1.89543 1.39543 1 2.5 1H6.68675C7.20819 1 7.70901 1.20365 8.08248 1.56754L9.91752 3.35554C10.291 3.71943 10.7918 3.92308 11.3133 3.92308H19.6537C20.8846 3.92308 21.8234 5.02438 21.6285 6.23976L19.7699 17.8295C19.6144 18.7994 18.7775 19.5128 17.7952 19.5128H2.5C1.39543 19.5128 0.5 18.6174 0.5 17.5128Z" stroke="white"/>
</svg>
